<svg xmlns="http://www.w3.org/2000/svg" viewBox="0 0 256 256" width="256" height="256">
  <defs>
    <clipPath id="lensClip">
      <circle cx="128" cy="128" r="30"/>
    </clipPath>
  </defs>

  <!-- Dark background -->
  <rect width="256" height="256" rx="16" fill="#1a1a2e"/>

  <!-- Scale everything 1.12x from center -->
  <g transform="translate(128,128) scale(1.12) translate(-128,-128)">

    <!-- === ORIGINAL GRAPHQL LOGO === -->
    <g transform="translate(128, 128) scale(1.7) translate(-65.5, -50)" opacity="0.5" fill="#e10098">
      <path fill-rule="evenodd" clip-rule="evenodd" d="M65.5 6.46777L103.2 28.2339V71.7661L65.5 93.5322L27.8 71.7661V28.2339L65.5 6.46777ZM32.03 30.6761V62.6517L59.7217 14.6883L32.03 30.6761ZM65.5 13.14L33.5783 68.43H97.4217L65.5 13.14ZM93.1917 72.66H37.8083L65.5 88.6478L93.1917 72.66ZM98.97 62.6517L71.2783 14.6883L98.97 30.6761V62.6517Z"/>
      <circle cx="29.91" cy="29.45" r="8.91"/>
      <circle cx="29.91" cy="70.545" r="8.91"/>
      <circle cx="65.5" cy="91.09" r="8.91"/>
      <circle cx="101.085" cy="70.545" r="8.91"/>
      <circle cx="101.085" cy="29.455" r="8.91"/>
      <circle cx="65.5" cy="8.91" r="8.91"/>
    </g>

    <!-- === SMALL WAVEFORM (full SVG width) === -->
    <path
      d="M0,128 C3,128 3,122 6,122 C9,122 9,134 12,134 C15,134 15,122 18,122 C21,122 21,134 24,134 C27,134 27,122 30,122 C33,122 33,134 36,134 C39,134 39,122 42,122 C45,122 45,134 48,134 C51,134 51,122 54,122 C57,122 57,134 60,134 C63,134 63,122 66,122 C69,122 69,134 72,134 C75,134 75,122 78,122 C81,122 81,134 84,134 C87,134 87,122 90,122 C93,122 93,134 96,134 C99,134 99,122 102,122 C105,122 105,134 108,134 C111,134 111,122 114,122 C117,122 117,134 120,134 C123,134 123,122 126,122 C129,122 129,134 132,134 C135,134 135,122 138,122 C141,122 141,134 144,134 C147,134 147,122 150,122 C153,122 153,134 156,134 C159,134 159,122 162,122 C165,122 165,134 168,134 C171,134 171,122 174,122 C177,122 177,134 180,134 C183,134 183,122 186,122 C189,122 189,134 192,134 C195,134 195,122 198,122 C201,122 201,134 204,134 C207,134 207,122 210,122 C213,122 213,134 216,134 C219,134 219,122 222,122 C225,122 225,134 228,134 C231,134 231,122 234,122 C237,122 237,134 240,134 C243,134 243,122 246,122 C249,122 249,128 256,128"
      fill="none"
      stroke="#e10098"
      stroke-width="2"
      stroke-opacity="0.5"
      stroke-linecap="round"
    />

    <!-- === MAGNIFYING GLASS (opaque background) === -->
    <circle cx="128" cy="128" r="30" fill="#1a1a2e"/>

    <!-- === AMPLIFIED WAVEFORM (clipped to lens) === -->
    <g clip-path="url(#lensClip)">
      <path
        d="M90,128 C93,128 95,122 98,122 C101,122 103,134 106,134 C109,134 111,104 114,104 C117,104 119,152 122,152 C125,152 127,104 130,104 C133,104 135,152 138,152 C141,152 143,104 146,104 C149,104 151,134 154,134 C157,134 159,122 162,122 C165,122 167,128 170,128"
        fill="none"
        stroke="#e10098"
        stroke-width="2.5"
        stroke-opacity="0.95"
        stroke-linecap="round"
      />
    </g>

    <!-- === LENS RING + HANDLE (on top) === -->
    <circle cx="128" cy="128" r="31" fill="none" stroke="#d8d8f0" stroke-width="4"/>
    <line x1="149" y1="150" x2="175" y2="176" stroke="#d8d8f0" stroke-width="5" stroke-linecap="round"/>

  </g>
</svg>
